<svg width="99" height="64" viewBox="0 0 99 64" fill="none" xmlns="http://www.w3.org/2000/svg">
<path d="M12.8508 17.6826C12.8508 17.1343 12.501 16.6993 11.8013 16.3779C11.1017 16.0375 10.1089 15.8673 8.82309 15.8673C7.49942 15.8673 6.39321 16.1888 5.50446 16.8317C4.59681 17.4557 4.14298 18.2121 4.14298 19.1009C4.14298 19.9707 4.3888 20.6514 4.88045 21.1431C5.33428 21.5969 5.92047 21.9278 6.63904 22.1358L7.68852 22.3911C8.48272 22.5613 9.10673 22.7315 9.56056 22.9017C10.0333 23.0529 10.4304 23.2799 10.7519 23.5824C11.0733 23.885 11.2341 24.2915 11.2341 24.8021C11.2341 25.445 11.0071 25.965 10.5533 26.3621C10.1184 26.7592 9.50383 26.9578 8.70963 26.9578C8.23689 26.9578 7.12123 26.6079 5.36264 25.9083C5.24918 25.8705 5.16409 25.8516 5.10736 25.8516C4.86154 25.8516 4.64408 25.965 4.45498 26.1919C4.26589 26.3999 4.17134 26.6363 4.17134 26.901C4.17134 27.4872 4.61571 27.9789 5.50446 28.376C6.39321 28.7731 7.45215 28.9716 8.68127 28.9716C9.9293 28.9716 10.9977 28.6407 11.8864 27.9789C12.7941 27.2981 13.2479 26.2676 13.2479 24.8872C13.2479 24.301 13.1723 23.7999 13.021 23.3839C12.8886 22.9489 12.7374 22.6558 12.5672 22.5046C12.3781 22.3155 12.1417 22.1264 11.8581 21.9373C11.5744 21.7104 10.922 21.4645 9.90093 21.1998C8.86091 20.9351 8.00998 20.642 7.34814 20.3205C6.62958 19.9801 6.2703 19.5925 6.2703 19.1576C6.2703 18.7227 6.5634 18.3634 7.14959 18.0797C7.73579 17.7772 8.30308 17.6259 8.85145 17.6259C9.43765 17.6259 10.0428 17.7772 10.6668 18.0797C11.3286 18.3823 11.8108 18.5336 12.1133 18.5336C12.2835 18.5336 12.4443 18.4579 12.5955 18.3067C12.7657 18.1365 12.8508 17.9285 12.8508 17.6826ZM26.8739 22.6464C27.2899 22.6464 27.6019 22.6464 27.8099 22.6464C28.0179 22.6275 28.1692 22.618 28.2637 22.618C28.4906 22.5802 28.6986 22.4573 28.8877 22.2493C29.0768 22.0413 29.1714 21.8238 29.1714 21.5969C29.1714 21.1431 28.8783 20.8784 28.2921 20.8027C25.8906 20.8027 24.444 20.7933 23.9523 20.7743C23.9334 20.642 23.924 19.687 23.924 17.9096C24.6425 17.9663 25.3422 17.9946 26.0229 17.9946C27.895 17.9946 29.0768 17.8623 29.5685 17.5975C29.7954 17.4463 29.9089 17.191 29.9089 16.8317C29.9089 16.359 29.6063 16.0753 29.0012 15.9808H28.9728L24.0091 15.8957H23.2149C22.3639 15.9146 21.9385 16.2739 21.9385 16.9735C21.9385 18.1837 21.9668 19.5263 22.0236 21.0013C21.8156 21.2093 21.7116 21.4362 21.7116 21.682C21.7116 21.9656 21.8345 22.1737 22.0803 22.306V27.0145C22.0803 27.6196 22.137 28.1018 22.2505 28.4611C22.3639 28.8204 22.657 29 23.1298 29L28.6892 28.9433C29.4267 28.9433 29.7954 28.5462 29.7954 27.752C29.7954 27.336 29.5212 27.0996 28.9728 27.0429L24.0658 27.128C24.0847 27.109 24.0942 26.8443 24.0942 26.3338L24.0374 22.618L26.8739 22.6464ZM49.3351 15.2433C49.0703 15.2433 48.8151 15.3284 48.5692 15.4986C48.3423 15.6499 48.1911 15.82 48.1154 16.0091C48.0776 16.0659 47.9736 16.3401 47.8034 16.8317L47.5765 17.5692C46.839 19.6303 45.5154 20.6609 43.6055 20.6609C42.9437 20.6609 42.348 20.2827 41.8185 19.5263C41.2891 18.751 41.0149 17.8906 40.996 16.9452C40.9771 16.7183 40.8636 16.5386 40.6556 16.4062C40.4476 16.2739 40.1923 16.2077 39.8898 16.2077C39.625 16.2077 39.3887 16.3306 39.1807 16.5764C38.9727 16.8033 38.8687 17.0586 38.8687 17.3423V22.93L38.7836 28.1774C38.7836 28.7258 39.0388 29 39.5494 29C40.4192 29 40.8636 28.6029 40.8825 27.8087C40.9203 27.0145 40.9392 25.029 40.9392 21.8522C41.5254 22.4384 42.3669 22.7315 43.4637 22.7315C44.5415 22.7315 45.4019 22.5613 46.0448 22.2209C46.7067 21.8806 47.3874 21.2849 48.0871 20.434C48.0871 21.89 48.0965 22.9489 48.1154 23.6108C48.1532 24.8966 48.1721 26.381 48.1721 28.064C48.1721 28.688 48.4085 29 48.8813 29C49.3729 29 49.7133 28.8771 49.9024 28.6313C50.1293 28.3665 50.2427 28.0923 50.2427 27.8087C50.2427 23.3271 50.2144 19.4034 50.1576 16.0375C50.1576 15.508 49.8835 15.2433 49.3351 15.2433ZM63.7575 22.6464C64.1735 22.6464 64.4855 22.6464 64.6935 22.6464C64.9015 22.6275 65.0528 22.618 65.1473 22.618C65.3742 22.5802 65.5822 22.4573 65.7713 22.2493C65.9604 22.0413 66.055 21.8238 66.055 21.5969C66.055 21.1431 65.7619 20.8784 65.1757 20.8027C62.7742 20.8027 61.3276 20.7933 60.8359 20.7743C60.817 20.642 60.8076 19.687 60.8076 17.9096C61.5261 17.9663 62.2258 17.9946 62.9065 17.9946C64.7786 17.9946 65.9604 17.8623 66.4521 17.5975C66.679 17.4463 66.7924 17.191 66.7924 16.8317C66.7924 16.359 66.4899 16.0753 65.8848 15.9808H65.8564L60.8927 15.8957H60.0985C59.2475 15.9146 58.8221 16.2739 58.8221 16.9735C58.8221 18.1837 58.8504 19.5263 58.9072 21.0013C58.6991 21.2093 58.5951 21.4362 58.5951 21.682C58.5951 21.9656 58.7181 22.1737 58.9639 22.306V27.0145C58.9639 27.6196 59.0206 28.1018 59.1341 28.4611C59.2475 28.8204 59.5406 29 60.0134 29L65.5728 28.9433C66.3102 28.9433 66.679 28.5462 66.679 27.752C66.679 27.336 66.4048 27.0996 65.8564 27.0429L60.9494 27.128C60.9683 27.109 60.9777 26.8443 60.9777 26.3338L60.921 22.618L63.7575 22.6464ZM76.2344 29C76.5181 29 76.7923 28.9055 77.057 28.7164C77.3217 28.5084 77.4635 28.2909 77.4824 28.064C77.5581 27.0807 77.5959 24.0079 77.5959 18.8456C77.5959 17.6732 77.5865 16.983 77.5675 16.775C77.5486 16.4724 77.4352 16.2455 77.2272 16.0942C77.0381 15.9619 76.8017 15.8957 76.5181 15.8957C76.2344 15.8957 75.9981 15.9808 75.809 16.151C75.6388 16.3022 75.5537 16.5102 75.5537 16.775L75.4402 28.3193C75.4402 28.7731 75.705 29 76.2344 29ZM91.2786 22.6464C91.6946 22.6464 92.0066 22.6464 92.2146 22.6464C92.4226 22.6275 92.5739 22.618 92.6684 22.618C92.8954 22.5802 93.1034 22.4573 93.2925 22.2493C93.4815 22.0413 93.5761 21.8238 93.5761 21.5969C93.5761 21.1431 93.283 20.8784 92.6968 20.8027C90.2953 20.8027 88.8487 20.7933 88.3571 20.7743C88.3382 20.642 88.3287 19.687 88.3287 17.9096C89.0473 17.9663 89.7469 17.9946 90.4277 17.9946C92.2997 17.9946 93.4815 17.8623 93.9732 17.5975C94.2001 17.4463 94.3136 17.191 94.3136 16.8317C94.3136 16.359 94.011 16.0753 93.4059 15.9808H93.3775L88.4138 15.8957H87.6196C86.7687 15.9146 86.3432 16.2739 86.3432 16.9735C86.3432 18.1837 86.3716 19.5263 86.4283 21.0013C86.2203 21.2093 86.1163 21.4362 86.1163 21.682C86.1163 21.9656 86.2392 22.1737 86.485 22.306V27.0145C86.485 27.6196 86.5417 28.1018 86.6552 28.4611C86.7687 28.8204 87.0618 29 87.5345 29L93.0939 28.9433C93.8314 28.9433 94.2001 28.5462 94.2001 27.752C94.2001 27.336 93.9259 27.0996 93.3775 27.0429L88.4705 27.128C88.4894 27.109 88.4989 26.8443 88.4989 26.3338L88.4422 22.618L91.2786 22.6464Z" fill="white"/>
<ellipse cx="86.6395" cy="51.1222" rx="12.4516" ry="12.2167" transform="rotate(-90.6656 86.6395 51.1222)" fill="url(#paint0_linear_2_36)"/>
<ellipse cx="54.2881" cy="51.9679" rx="9.1625" ry="8.98963" transform="rotate(-90.6656 54.2881 51.9679)" fill="url(#paint1_linear_2_36)"/>
<ellipse cx="27.9776" cy="52.3277" rx="6.28906" ry="6.17039" transform="rotate(-90.6656 27.9776 52.3277)" fill="url(#paint2_linear_2_36)"/>
<defs>
<linearGradient id="paint0_linear_2_36" x1="86.6395" y1="38.9055" x2="86.6395" y2="63.3388" gradientUnits="userSpaceOnUse">
<stop stop-color="#B4654A"/>
<stop offset="1" stop-color="#B96637" stop-opacity="0.22"/>
</linearGradient>
<linearGradient id="paint1_linear_2_36" x1="54.2881" y1="42.9782" x2="54.2881" y2="60.9575" gradientUnits="userSpaceOnUse">
<stop stop-color="#B4654A"/>
<stop offset="1" stop-color="#B96637" stop-opacity="0.22"/>
</linearGradient>
<linearGradient id="paint2_linear_2_36" x1="27.9776" y1="46.1573" x2="27.9776" y2="58.4981" gradientUnits="userSpaceOnUse">
<stop stop-color="#B4654A"/>
<stop offset="1" stop-color="#B96637" stop-opacity="0.22"/>
</linearGradient>
</defs>
</svg>
